<svg xmlns="http://www.w3.org/2000/svg" viewBox="0 0 592.34 592.34"><defs><style>.cls-1{fill:#3bb44a;}.cls-2{fill:#fff;}</style></defs><title>Asset 4</title><g id="Layer_2" data-name="Layer 2"><g id="Layer_1-2" data-name="Layer 1"><rect class="cls-1" width="592.34" height="592.34" rx="296.17"/><path class="cls-2" d="M264.29,412.41l66.25,57.46a3.8,3.8,0,0,0,6.28-2.87V125.34a3.8,3.8,0,0,0-6.28-2.87l-66.25,57.46a25.43,25.43,0,0,0-8.77,19.21V393.2a25.43,25.43,0,0,0,8.77,19.21"/><path class="cls-2" d="M378.05,397.08l66.25,57.46a3.79,3.79,0,0,0,6.28-2.86v-311a3.79,3.79,0,0,0-6.28-2.86l-66.25,57.46a25.43,25.43,0,0,0-8.77,19.21v163.4a25.43,25.43,0,0,0,8.77,19.21"/><path class="cls-2" d="M150.53,427.74l66.26,57.45a3.79,3.79,0,0,0,6.27-2.86V110a3.79,3.79,0,0,0-6.27-2.86L150.53,164.6a25.43,25.43,0,0,0-8.77,19.22v224.7a25.43,25.43,0,0,0,8.77,19.22"/></g></g></svg>